<mxfile host="Electron" agent="Mozilla/5.0 (Windows NT 10.0; Win64; x64) AppleWebKit/537.36 (KHTML, like Gecko) draw.io/28.1.2 Chrome/138.0.7204.243 Electron/37.4.0 Safari/537.36" version="28.1.2">
  <diagram name="PÃ¡gina-1" id="DwXPxnfh0VEjkcSBsYdv">
    <mxGraphModel dx="1665" dy="859" grid="1" gridSize="10" guides="1" tooltips="1" connect="1" arrows="1" fold="1" page="1" pageScale="1" pageWidth="583" pageHeight="413" math="0" shadow="0">
      <root>
        <mxCell id="0" />
        <mxCell id="1" parent="0" />
        <mxCell id="IEg7ChCuQl4CVQ8-v3hP-3" value="" style="whiteSpace=wrap;html=1;aspect=fixed;movable=1;resizable=1;rotatable=1;deletable=1;editable=1;locked=0;connectable=1;" parent="1" vertex="1">
          <mxGeometry x="156.25" y="62.75" width="383.75" height="383.75" as="geometry" />
        </mxCell>
        <mxCell id="IEg7ChCuQl4CVQ8-v3hP-28" style="edgeStyle=orthogonalEdgeStyle;rounded=0;orthogonalLoop=1;jettySize=auto;html=1;exitX=0.5;exitY=0.5;exitDx=0;exitDy=0;exitPerimeter=0;" parent="1" source="IEg7ChCuQl4CVQ8-v3hP-4" target="IEg7ChCuQl4CVQ8-v3hP-9" edge="1">
          <mxGeometry relative="1" as="geometry" />
        </mxCell>
        <mxCell id="IEg7ChCuQl4CVQ8-v3hP-4" value="Cliente" style="shape=umlActor;verticalLabelPosition=bottom;verticalAlign=top;html=1;outlineConnect=0;" parent="1" vertex="1">
          <mxGeometry x="100" y="111.5" width="30" height="60" as="geometry" />
        </mxCell>
        <mxCell id="83_4ZIEXlswJUvxfXmRf-1" style="edgeStyle=orthogonalEdgeStyle;rounded=0;orthogonalLoop=1;jettySize=auto;html=1;exitX=0.5;exitY=0;exitDx=0;exitDy=0;exitPerimeter=0;entryX=0;entryY=0.5;entryDx=0;entryDy=0;" edge="1" parent="1" source="IEg7ChCuQl4CVQ8-v3hP-6" target="IEg7ChCuQl4CVQ8-v3hP-45">
          <mxGeometry relative="1" as="geometry" />
        </mxCell>
        <mxCell id="83_4ZIEXlswJUvxfXmRf-2" style="edgeStyle=orthogonalEdgeStyle;rounded=0;orthogonalLoop=1;jettySize=auto;html=1;exitX=0.75;exitY=0.1;exitDx=0;exitDy=0;exitPerimeter=0;entryX=0;entryY=0.5;entryDx=0;entryDy=0;" edge="1" parent="1" source="IEg7ChCuQl4CVQ8-v3hP-6" target="IEg7ChCuQl4CVQ8-v3hP-42">
          <mxGeometry relative="1" as="geometry" />
        </mxCell>
        <mxCell id="IEg7ChCuQl4CVQ8-v3hP-6" value="Encargado" style="shape=umlActor;verticalLabelPosition=bottom;verticalAlign=top;html=1;outlineConnect=0;" parent="1" vertex="1">
          <mxGeometry x="100" y="360" width="30" height="60" as="geometry" />
        </mxCell>
        <mxCell id="IEg7ChCuQl4CVQ8-v3hP-9" value="Realizar reserva" style="ellipse;whiteSpace=wrap;html=1;" parent="1" vertex="1">
          <mxGeometry x="210" y="150" width="74" height="37" as="geometry" />
        </mxCell>
        <mxCell id="IEg7ChCuQl4CVQ8-v3hP-10" value="Pagar con tarjeta" style="ellipse;whiteSpace=wrap;html=1;" parent="1" vertex="1">
          <mxGeometry x="330" y="113" width="74" height="37" as="geometry" />
        </mxCell>
        <mxCell id="IEg7ChCuQl4CVQ8-v3hP-11" value="Servicio del banco" style="shape=umlActor;verticalLabelPosition=bottom;verticalAlign=top;html=1;" parent="1" vertex="1">
          <mxGeometry x="583" y="111.5" width="30" height="60" as="geometry" />
        </mxCell>
        <mxCell id="IEg7ChCuQl4CVQ8-v3hP-13" value="Dar de alta mobiliarios" style="ellipse;whiteSpace=wrap;html=1;" parent="1" vertex="1">
          <mxGeometry x="245" y="380" width="94" height="47" as="geometry" />
        </mxCell>
        <mxCell id="IEg7ChCuQl4CVQ8-v3hP-31" style="edgeStyle=orthogonalEdgeStyle;rounded=0;orthogonalLoop=1;jettySize=auto;html=1;entryX=0.973;entryY=0.725;entryDx=0;entryDy=0;entryPerimeter=0;" parent="1" source="IEg7ChCuQl4CVQ8-v3hP-10" target="IEg7ChCuQl4CVQ8-v3hP-9" edge="1">
          <mxGeometry relative="1" as="geometry" />
        </mxCell>
        <mxCell id="IEg7ChCuQl4CVQ8-v3hP-32" value="extend" style="edgeLabel;html=1;align=center;verticalAlign=middle;resizable=0;points=[];" parent="IEg7ChCuQl4CVQ8-v3hP-31" vertex="1" connectable="0">
          <mxGeometry x="0.2679" y="-1" relative="1" as="geometry">
            <mxPoint as="offset" />
          </mxGeometry>
        </mxCell>
        <mxCell id="IEg7ChCuQl4CVQ8-v3hP-33" value="" style="endArrow=none;html=1;rounded=0;exitX=1;exitY=0.3333333333333333;exitDx=0;exitDy=0;exitPerimeter=0;entryX=0;entryY=0;entryDx=0;entryDy=0;fillColor=#FF4B24;" parent="1" source="IEg7ChCuQl4CVQ8-v3hP-4" target="IEg7ChCuQl4CVQ8-v3hP-10" edge="1">
          <mxGeometry width="50" height="50" relative="1" as="geometry">
            <mxPoint x="210" y="120" as="sourcePoint" />
            <mxPoint x="260" y="70" as="targetPoint" />
          </mxGeometry>
        </mxCell>
        <mxCell id="IEg7ChCuQl4CVQ8-v3hP-38" style="endArrow=none;html=1;rounded=0;exitX=1;exitY=0.3333333333333333;exitDx=0;exitDy=0;exitPerimeter=0;entryX=0;entryY=0.3333333333333333;entryDx=0;entryDy=0;fillColor=#FF4B24;entryPerimeter=0;" parent="1" source="IEg7ChCuQl4CVQ8-v3hP-10" target="IEg7ChCuQl4CVQ8-v3hP-11" edge="1">
          <mxGeometry relative="1" as="geometry" />
        </mxCell>
        <mxCell id="IEg7ChCuQl4CVQ8-v3hP-42" value="Cerrar sesion" style="ellipse;whiteSpace=wrap;html=1;" parent="1" vertex="1">
          <mxGeometry x="240" y="281.5" width="74" height="37" as="geometry" />
        </mxCell>
        <mxCell id="IEg7ChCuQl4CVQ8-v3hP-45" value="inciar sesion" style="ellipse;whiteSpace=wrap;html=1;" parent="1" vertex="1">
          <mxGeometry x="240" y="230" width="74" height="37" as="geometry" />
        </mxCell>
        <mxCell id="IEg7ChCuQl4CVQ8-v3hP-58" style="edgeStyle=orthogonalEdgeStyle;rounded=0;orthogonalLoop=1;jettySize=auto;html=1;exitX=0.5;exitY=0.5;exitDx=0;exitDy=0;exitPerimeter=0;entryX=0.022;entryY=0.613;entryDx=0;entryDy=0;entryPerimeter=0;" parent="1" source="IEg7ChCuQl4CVQ8-v3hP-6" target="IEg7ChCuQl4CVQ8-v3hP-13" edge="1">
          <mxGeometry relative="1" as="geometry" />
        </mxCell>
      </root>
    </mxGraphModel>
  </diagram>
</mxfile>
